<svg id="Layer_1" data-name="Layer 1" xmlns="http://www.w3.org/2000/svg" viewBox="0 0 60.75 290.05"><defs><style>.cls-1{fill:#ffa732;}</style></defs><path class="cls-1" d="M1031.57,498.74a6.54,6.54,0,0,1,.54,3.26c-.08,1,.39,2.15.17,3.26,1,.88,0,2.2.74,3.25s0,2.32.1,3.5c.07,1-.16,1.92.54,2.74-.6,1,.1,2,.07,3-.06,1.74.74,3.39.52,5-.25,1.84.21,3.54.32,5.29l-2.34.66,1.63.73.86,1.91-.86.72.93.71-.73,2.29.7,1.16a8,8,0,0,1-.46,1.36,4.3,4.3,0,0,1-.79.84l.72.23a16.63,16.63,0,0,1,.33,6.58l-1.49.32,1.78.88c-.9,2.84.51,5.82-.7,8-.18,1.56.37,2.47,0,3.59a9.75,9.75,0,0,0,0,2.88l-.42.25.31.71-1.21.17a3.78,3.78,0,0,1,1,4,18.57,18.57,0,0,0-.3,4.07,70.08,70.08,0,0,0-.48,7.63c.06,1.19-.6,2.21-.38,3.31.43,2.18-.46,4.23-.57,6.36s-.58,4.25-.68,6.38c-.07,1.46-.31,2.89-.46,4.33s-.83,2.95-.65,4.35c.15,1.21-.73,2.12-.51,3.06.31,1.29-.33,2.25-.58,3.34,0,.11-.25.17-.39.25-.06-.38-.11-.76-.26-1.74-.3.95-.64,1.45-.52,1.75a8.18,8.18,0,0,0,1.14,1.66c-.86,1.89-.06,4.25-1.88,6.32.29-1.28.5-2.16.7-3.05a7,7,0,0,0-1.52,3.69,14.33,14.33,0,0,1-.26,2.29c-.14.84-.12,1.71-.28,2.54a14.29,14.29,0,0,1-.65,2.08c-.18.52.75,1.06-.16,1.66-.35.23-.16,1.19-.39,1.75s0,1.4-.11,2a8.08,8.08,0,0,1-1.33,3.43c.36-3.2,1.11-6,.7-9l-1.43,1c.31.63.54,1.12.73,1.51,0,1-.7,1.63-.44,2.67.16.69-.56,1.57-.8,2.39s-.33,1.56-.52,2.34c0,.09-.26.13-.38.19l-.36-.56-.7.25-.29-.63,1-2.36-2,.61a6.24,6.24,0,0,0-.23,2.53c.4,1.07-1,1.19-.76,2.2a6.68,6.68,0,0,1-.35,2.55c-.14.84-.29,1.69-.42,2.48l-1.81.15,1.16,1.26a13.65,13.65,0,0,0-.12,2.6c.14,1,.33,1.86-.66,2.38.11.67.21,1.3.32,1.94l-1.49.7c.35.43.67.84,1,1.22l-.93.63,1.07.28c.66-.89.33-2.16,1.5-2.57l-.63-1.32c.13-1.41,1.23-2.51.74-3.78l1.49-2-.92-.69,1.17-1.28-.34-.8,1-.53.23,1.62-.77.39,1.39,2.08-.84.74c0,1,.08,1.94.11,3l-1.42.19c-.08,1.2-.17,2.39-.25,3.51l.79.44-.64.65-.62.39,1.57,1-1.12.8.52,1,.7-.42,1.65-7.9.4-.05.34.89c-.28,1.37-.88,2.58-.64,3.6.3,1.35-1.17,1.9-.9,3.22.17.82-.69,1.78-.25,2.78-1.1,2.1-.7,4.55-1.56,6.71-.6,1.51-1,3.1-1.52,4.65l.49-.22,0,1.27c.41-2.36,2-7.37,3.23-9.3-.36,1.47-.9,2.9-1.27,4.37s-.45,2.94-.88,4.35c-1.12,3.74-2.28,7.48-3.62,11.15-.44,1.22-.18,2.42-.47,3.61-.17.69-1.47.59-1,1.69.15.3-.62,1.05-.48,1.34.48,1-.61,1-.79,1.67-.79,3-2,5.86-2.73,8.85s-2.64,5.46-3.33,8.43c-.1.41-.26.81-.46,1.44l-1.37-1.17c-.2.79-.37,1.44-.48,1.86l.9.86-1.56,1.54c.06-.68.09-1.19.13-1.71l-.42,0c-.16,1-.32,2.07-.5,3.27l-.51-.87c-1.12.77-.49,1.91-.55,2.65l-2.55,1.33-.29-.49c-1.17.57-2.33,1.23-3.67.46,0-.37,0-.71-.08-1.29l-2,1.43-.69-1.34.86-2.67-1-1.29-2.39,3.81-1.32-2.08.61-.35c0-.88-.07-1.7-.09-2.23,1.49-2.4,3.27-4.49,4.17-6.89,1.25-3.34,3.06-6.45,3.93-10,.69-2.81,1.71-5.55,2.65-8.31a12.19,12.19,0,0,1,1-1.88,8.13,8.13,0,0,0,.15-1.84c-.12-.87.94-1.05.91-1.93a8.17,8.17,0,0,1,.58-2.57c1.17-3.73,2.38-7.45,3.58-11.17.17-.52.59-1.12.45-1.54-.55-1.67.62-2.91.95-4.35.05-.26.46-.32.4-.91a5.61,5.61,0,0,1,.39-3.27c.61-1.06.39-2.25,1-3.24a7.91,7.91,0,0,1,.73-.93c-.1-.73-.5-1.61-.25-2.21,1-2.33,1-4.87,1.68-7.24a4.84,4.84,0,0,0,.41-2.57,2.17,2.17,0,0,1,1.2-2.45c-.52-1.43-.79-2.81.63-3.91l-.65-1.28c.26-.82.94-1.8.73-2.51-.38-1.24.6-2.11.44-3.09a6.71,6.71,0,0,1,.47-3.07c.1-.35.4-.79.28-1-.68-1.32.89-2.53.13-3.82.94-1.59.6-3.45,1-5.16.34-1.33.18-2.79.8-4.09-.64-.92.12-1.7.24-2.54s.24-1.87.34-2.81a13.26,13.26,0,0,1,.27-2.54c.84-2.68.53-5.56,1.47-8.22-.8-1.49.66-2.75.37-4.34-.26-1.43.78-3.07.69-4.59-.06-1.13.46-2.05.43-3.07-.1-3.85.67-7.62.92-11.44q.2-2.94.53-5.88a51.3,51.3,0,0,0,.4-6.08c0-1.64.58-3.21.42-4.83a28.84,28.84,0,0,1,.17-4.06c.11-2.45.23-4.9.19-7.35s.63-4.72-.11-7.07a.82.82,0,0,1,.16-.51c.6-1.15.19-2.38.34-3.56.25-1.88-.59-3.64-.35-5.55a31.2,31.2,0,0,0-.15-5.54c-.12-2.51-.23-5-.41-7.55s-.5-5-.66-7.52c-.23-3.78-.5-7.55-1.06-11.29-.59-4-1.19-8-1.88-12-.55-3.16-1.35-6.28-1.83-9.45-.35-2.33-1.24-4.59-1-7-1.21-3-1-6.15-1.23-9.25-.34-4.37-.21-4.38,1.9-7.33l.62.4c-.28,1-.55,2-.81,3,1-1,.95-2.44,2-3.64a9,9,0,0,0,.94,1.5,6.26,6.26,0,0,0,1.21.79,12.28,12.28,0,0,1,.26,1.29c.09,1,.92,1.64,1,2.66.13,2.72,2,5.12,1.47,8,0,.1.22.24.32.37,1.12,1.39,0,3.45,1.41,4.77.06.05-.11.32-.15.5s-.09.5-.12.69c1,1.06,1.18,1.1,1,1.7s.13,1,.2,1.52c.22,1.71,1.6,3.11,1.27,4.95,1.16,1.35.43,3.16,1.23,4.69s.8,3.64,1.29,5.4a61.55,61.55,0,0,1,1.11,6.25c.26,1.56.61,3.1.91,4.62l-.59.42.87.54C1031.65,497.89,1031.42,498.39,1031.57,498.74Zm-13.81,116.93c-.66,1.05-.19,2.35-.78,3.41,0,.06-.15.08-.23.12.13.81.26,1.62.39,2.38l-.8.45c.11.25.33.52.3.74-.26,1.44-.56,2.88-.9,4.3,0,.18-.42.28-.69.45.09.43.36,1,.21,1.24-.94,1.79-.8,3.82-1.09,5.69s-.77,3.43-1.18,5.13a10.22,10.22,0,0,0-.33,2.8c.1,2.2-.87,4.13-1.4,6.1.24.48.45.88.67,1.31-1.12.52-1,1.44-.72,2.36l-1.17,1.43.78,1.75c-.75.78-1.57,1.49-1.16,2.71-1.26,1.44-.53,3.41-1.34,5a7.69,7.69,0,0,0-.72,5.27c.42-1.07.54-2.45,1.25-2.91,1.41-.92.13-2.18.79-3.11s1.52-1.48,1.26-2.7a3.07,3.07,0,0,1,1-3l-.3-1.83.37-.23c.25-1.22.48-2.3.69-3.39.23-1.28.47-2.56.66-3.85.12-.86,1-1.35.85-2.43-.12-.78.62-1.61.21-2.55-.1-.25.23-.67.3-1,.23-1.12,1.07-2.13.73-3.34-.31-1.06,1-2,.22-3.07-.13-.18.14-.7.31-1a10.92,10.92,0,0,0,.75-4.37c.06-.8.16-1.59.28-2.37a6.8,6.8,0,0,0,.37-2.82c-.18-.78.47-1.54.3-2.56s.58-2.26.55-3.56a21.38,21.38,0,0,1,.83-4.62c.28-1.37,0-2.83.75-4.11-.87-1.4.72-2.57.31-4.08-.3-1.13.74-2.42.57-3.82-.13-1,.94-1.92.55-3.08-.33-1,.78-1.72.34-2.82-.38-.93.59-1.87.3-3.05-.23-1,.63-2,.5-3.31s.41-2.89.66-4.37l-.73-.29c-.15.16-.36.28-.36.41a14.74,14.74,0,0,1-.06,3.52c-.66,2.45-.66,5-1.06,7.46s-.73,4.88-.9,7.35c-.13,1.8-.83,3.64-1,5.5a18.88,18.88,0,0,0-.43,4.58c.07.47-.47,1-.81,1.7C1017.58,615.19,1017.85,615.54,1017.76,615.67Z" transform="translate(-974.1 -446.66)"/><path class="cls-1" d="M975.87,734.6c.27,0,.75-.22.91-.07,1.74,1.59,3.94,1.67,6.08,1.92a12.79,12.79,0,0,0,5.3,0c3.17-1,6.72-1.1,9.26-3.68,1.67.44,2.19-2,3.87-1.56,1.39-1.45,3.35-2,5-3.06,1-.69,2-1.35,3.09-2,.4-.24.63-.78,1-1.31l2-.29,2.29-1.89,1.67.43c.2-.26.41-.52.61-.79,1.17-.17.55.8.79,1.22a7.15,7.15,0,0,0,4-2.07l-1.15-3.24-3.48-1.12-.78-1.44c-1.71-.32-3.23-1.37-5.15-1.11-.91.12-1.89-.07-2.73.46-.53.34-1.38-.13-1.74.81-.07.2-1.1,0-1.69.07a8.94,8.94,0,0,0-3.12,1.21,54.09,54.09,0,0,0-7,3.62c-2.18,1.41-4.58,2.53-6.49,4.38a11.2,11.2,0,0,1-2,1.24c-.66.41-1.29.86-2.11,1.41-.1-1-.2-2.1-.32-3.3l1-.05c.52-2.33-.16-4.73.14-7.21l-1.16-.38c0-1.94,0-3.79.06-5.64,0-.77,1.24-1.08.73-2.23l-.83.9c.63-1.17-1.15-2.92,1.12-3.65-1.39-2.26.48-4.95-1.35-7.06l.69-.4a29,29,0,0,1-.18-4.47c.15-1.55-1.22-2.49-1-4.36a7.11,7.11,0,0,0,.12-5.84l-1.93-1.41-.88.2c-.21-.4-.42-.8-.65-1.26-.58.58-1.14,1.16-1.71,1.74l-.69-1.34L976,683.17c.94,1.45-.52,2.8-.34,4.45.26,2.32-.35,4.73-.44,7.11-.1,2.77,0,5.56-.08,8.34,0,3-.05,5.91-.28,8.87-.18,2.43.23,4.88-.07,7.33.7,1.08-.65,2.19,0,3.28-.82,1.89.05,3.94-.55,5.86a8.59,8.59,0,0,0,0,1.25C974,731.51,973.9,733.3,975.87,734.6Z" transform="translate(-974.1 -446.66)"/></svg>